<svg width="131" height="35" viewBox="0 0 131 35" fill="none" xmlns="http://www.w3.org/2000/svg">
<path d="M20.276 0.287998V27H16.964V23.976C16.196 25.032 15.224 25.836 14.048 26.388C12.872 26.94 11.576 27.216 10.16 27.216C8.312 27.216 6.656 26.808 5.192 25.992C3.728 25.176 2.576 24.036 1.736 22.572C0.92 21.084 0.512 19.38 0.512 17.46C0.512 15.54 0.92 13.848 1.736 12.384C2.576 10.92 3.728 9.78 5.192 8.964C6.656 8.148 8.312 7.74 10.16 7.74C11.528 7.74 12.788 8.004 13.94 8.532C15.092 9.036 16.052 9.792 16.82 10.8V0.287998H20.276ZM10.448 24.192C11.648 24.192 12.74 23.916 13.724 23.364C14.708 22.788 15.476 21.996 16.028 20.988C16.58 19.956 16.856 18.78 16.856 17.46C16.856 16.14 16.58 14.976 16.028 13.968C15.476 12.936 14.708 12.144 13.724 11.592C12.74 11.04 11.648 10.764 10.448 10.764C9.224 10.764 8.12 11.04 7.136 11.592C6.176 12.144 5.408 12.936 4.832 13.968C4.28 14.976 4.004 16.14 4.004 17.46C4.004 18.78 4.28 19.956 4.832 20.988C5.408 21.996 6.176 22.788 7.136 23.364C8.12 23.916 9.224 24.192 10.448 24.192ZM33.7631 7.74C36.4031 7.74 38.4191 8.388 39.8111 9.684C41.2271 10.98 41.9351 12.912 41.9351 15.48V27H38.6591V24.48C38.0831 25.368 37.2551 26.052 36.1751 26.532C35.1191 26.988 33.8591 27.216 32.3951 27.216C30.2591 27.216 28.5431 26.7 27.2471 25.668C25.9751 24.636 25.3391 23.28 25.3391 21.6C25.3391 19.92 25.9511 18.576 27.1751 17.568C28.3991 16.536 30.3431 16.02 33.0071 16.02H38.4791V15.336C38.4791 13.848 38.0471 12.708 37.1831 11.916C36.3191 11.124 35.0471 10.728 33.3671 10.728C32.2391 10.728 31.1351 10.92 30.0551 11.304C28.9751 11.664 28.0631 12.156 27.3191 12.78L25.8791 10.188C26.8631 9.396 28.0391 8.796 29.4071 8.388C30.7751 7.956 32.2271 7.74 33.7631 7.74ZM32.9711 24.552C34.2911 24.552 35.4311 24.264 36.3911 23.688C37.3511 23.088 38.0471 22.248 38.4791 21.168V18.504H33.1511C30.2231 18.504 28.7591 19.488 28.7591 21.456C28.7591 22.416 29.1311 23.172 29.8751 23.724C30.6191 24.276 31.6511 24.552 32.9711 24.552ZM64.8631 7.92L55.6111 28.908C54.7951 30.852 53.8351 32.22 52.7311 33.012C51.6511 33.804 50.3431 34.2 48.8071 34.2C47.8711 34.2 46.9591 34.044 46.0711 33.732C45.2071 33.444 44.4871 33.012 43.9111 32.436L45.3871 29.844C46.3711 30.78 47.5111 31.248 48.8071 31.248C49.6471 31.248 50.3431 31.02 50.8951 30.564C51.4711 30.132 51.9871 29.376 52.4431 28.296L53.0551 26.964L44.6311 7.92H48.2311L54.8911 23.184L61.4791 7.92H64.8631Z" fill="#F5C721"/>
<path d="M68.3765 0.287998H70.9325V27H68.3765V0.287998ZM94.5325 18.324H78.6925C78.8365 20.292 79.5925 21.888 80.9605 23.112C82.3285 24.312 84.0565 24.912 86.1445 24.912C87.3205 24.912 88.4005 24.708 89.3845 24.3C90.3685 23.868 91.2205 23.244 91.9405 22.428L93.3805 24.084C92.5405 25.092 91.4845 25.86 90.2125 26.388C88.9645 26.916 87.5845 27.18 86.0725 27.18C84.1285 27.18 82.4005 26.772 80.8885 25.956C79.4005 25.116 78.2365 23.964 77.3965 22.5C76.5565 21.036 76.1365 19.38 76.1365 17.532C76.1365 15.684 76.5325 14.028 77.3245 12.564C78.1405 11.1 79.2445 9.96 80.6365 9.144C82.0525 8.328 83.6365 7.92 85.3885 7.92C87.1405 7.92 88.7125 8.328 90.1045 9.144C91.4965 9.96 92.5885 11.1 93.3805 12.564C94.1725 14.004 94.5685 15.66 94.5685 17.532L94.5325 18.324ZM85.3885 10.116C83.5645 10.116 82.0285 10.704 80.7805 11.88C79.5565 13.032 78.8605 14.544 78.6925 16.416H92.1205C91.9525 14.544 91.2445 13.032 89.9965 11.88C88.7725 10.704 87.2365 10.116 85.3885 10.116ZM104.847 27.18C103.311 27.18 101.835 26.964 100.419 26.532C99.027 26.076 97.935 25.512 97.143 24.84L98.295 22.824C99.087 23.448 100.083 23.964 101.283 24.372C102.483 24.756 103.731 24.948 105.027 24.948C106.755 24.948 108.027 24.684 108.843 24.156C109.683 23.604 110.103 22.836 110.103 21.852C110.103 21.156 109.875 20.616 109.419 20.232C108.963 19.824 108.387 19.524 107.691 19.332C106.995 19.116 106.071 18.912 104.919 18.72C103.383 18.432 102.147 18.144 101.211 17.856C100.275 17.544 99.471 17.028 98.799 16.308C98.151 15.588 97.827 14.592 97.827 13.32C97.827 11.736 98.487 10.44 99.807 9.432C101.127 8.424 102.963 7.92 105.315 7.92C106.539 7.92 107.763 8.088 108.987 8.424C110.211 8.736 111.219 9.156 112.011 9.684L110.895 11.736C109.335 10.656 107.475 10.116 105.315 10.116C103.683 10.116 102.447 10.404 101.607 10.98C100.791 11.556 100.383 12.312 100.383 13.248C100.383 13.968 100.611 14.544 101.067 14.976C101.547 15.408 102.135 15.732 102.831 15.948C103.527 16.14 104.487 16.344 105.711 16.56C107.223 16.848 108.435 17.136 109.347 17.424C110.259 17.712 111.039 18.204 111.687 18.9C112.335 19.596 112.659 20.556 112.659 21.78C112.659 23.436 111.963 24.756 110.571 25.74C109.203 26.7 107.295 27.18 104.847 27.18ZM122.46 27.18C120.924 27.18 119.448 26.964 118.032 26.532C116.64 26.076 115.548 25.512 114.756 24.84L115.908 22.824C116.7 23.448 117.696 23.964 118.896 24.372C120.096 24.756 121.344 24.948 122.64 24.948C124.368 24.948 125.64 24.684 126.456 24.156C127.296 23.604 127.716 22.836 127.716 21.852C127.716 21.156 127.488 20.616 127.032 20.232C126.576 19.824 126 19.524 125.304 19.332C124.608 19.116 123.684 18.912 122.532 18.72C120.996 18.432 119.76 18.144 118.824 17.856C117.888 17.544 117.084 17.028 116.412 16.308C115.764 15.588 115.44 14.592 115.44 13.32C115.44 11.736 116.1 10.44 117.42 9.432C118.74 8.424 120.576 7.92 122.928 7.92C124.152 7.92 125.376 8.088 126.6 8.424C127.824 8.736 128.832 9.156 129.624 9.684L128.508 11.736C126.948 10.656 125.088 10.116 122.928 10.116C121.296 10.116 120.06 10.404 119.22 10.98C118.404 11.556 117.996 12.312 117.996 13.248C117.996 13.968 118.224 14.544 118.68 14.976C119.16 15.408 119.748 15.732 120.444 15.948C121.14 16.14 122.1 16.344 123.324 16.56C124.836 16.848 126.048 17.136 126.96 17.424C127.872 17.712 128.652 18.204 129.3 18.9C129.948 19.596 130.272 20.556 130.272 21.78C130.272 23.436 129.576 24.756 128.184 25.74C126.816 26.7 124.908 27.18 122.46 27.18Z" fill="black"/>
</svg>
